<?xml version="1.0" standalone="no"?>
<!DOCTYPE svg PUBLIC "-//W3C//DTD SVG 20010904//EN"
 "http://www.w3.org/TR/2001/REC-SVG-20010904/DTD/svg10.dtd">
<svg version="1.0" xmlns="http://www.w3.org/2000/svg"
 width="3743.000000pt" height="1461.000000pt" viewBox="0 0 3743.000000 1461.000000"
 preserveAspectRatio="xMidYMid meet">

<g transform="translate(0.000000,1461.000000) scale(0.100000,-0.100000)"
fill="#000000" stroke="none">
<path d="M5765 13284 c-357 -50 -695 -208 -1014 -472 -272 -226 -529 -562
-804 -1052 -186 -332 -438 -887 -567 -1251 l-13 -37 -166 -5 c-270 -8 -516
-62 -718 -158 -307 -146 -558 -437 -609 -705 -57 -303 87 -596 371 -755 68
-37 367 -329 403 -391 l20 -36 -106 -37 c-312 -108 -485 -193 -767 -377 -121
-79 -254 -169 -296 -200 -348 -257 -565 -578 -684 -1013 -47 -171 -59 -278
-52 -453 15 -373 163 -780 432 -1188 111 -168 217 -298 429 -529 467 -508 642
-713 770 -905 43 -63 102 -151 133 -195 68 -99 191 -349 273 -555 135 -339
240 -510 435 -706 132 -132 273 -238 391 -292 44 -21 55 -32 78 -80 39 -80
118 -210 194 -322 36 -52 99 -144 140 -205 345 -507 740 -840 1279 -1079 372
-165 817 -260 1278 -273 422 -12 812 32 1270 143 492 118 1065 344 1450 570
332 195 455 271 540 333 22 16 54 36 72 45 17 8 37 22 45 29 7 7 45 34 84 59
40 25 75 52 79 58 4 7 11 175 16 375 4 199 11 419 15 488 4 82 3 127 -3 127
-6 0 -33 -18 -60 -41 l-50 -40 -6 -127 c-4 -70 -7 -265 -7 -434 0 -210 -3
-308 -11 -308 -5 0 -7 4 -4 10 3 6 -1 7 -9 4 -14 -5 -16 26 -18 277 -2 414 -4
518 -9 523 -2 3 -22 -10 -43 -28 l-39 -32 2 -286 c1 -282 1 -286 -19 -281 -13
3 -20 0 -20 -8 0 -8 -6 -4 -15 8 -12 17 -15 69 -17 269 l-3 248 -35 -30 c-19
-16 -54 -42 -77 -57 -32 -20 -43 -34 -43 -53 0 -14 -4 -23 -10 -19 -6 4 -8 11
-5 16 12 19 -15 8 -57 -23 -97 -74 -377 -251 -568 -361 -52 -30 -119 -69 -149
-86 -257 -153 -760 -353 -1136 -452 -394 -104 -729 -145 -1110 -136 -340 8
-592 51 -870 147 -129 45 -373 167 -490 245 -225 150 -440 368 -576 580 -24
38 -59 90 -77 115 -172 238 -293 458 -372 677 -42 118 -45 123 -91 153 -59 38
-143 128 -202 217 -65 99 -170 293 -162 301 10 11 95 -87 147 -169 25 -41 68
-97 95 -124 51 -54 130 -107 120 -82 -15 39 -58 257 -76 382 -101 708 -11
1421 271 2138 218 554 571 1121 956 1537 429 462 910 779 1481 976 51 18 61
27 130 119 42 55 118 143 169 197 l94 98 -77 117 c-205 311 -371 480 -570 580
-67 34 -196 77 -265 88 -25 4 -54 10 -65 12 -42 10 -364 11 -440 1 -239 -30
-509 -126 -718 -256 -205 -126 -310 -234 -585 -601 -331 -444 -495 -568 -825
-627 -106 -19 -357 -22 -454 -6 -89 15 -131 38 -164 91 -16 25 -29 51 -29 59
0 27 31 79 54 90 22 10 24 8 29 -31 5 -33 15 -51 50 -84 24 -22 62 -47 83 -53
90 -29 472 -16 504 16 6 6 -10 74 -45 194 -79 267 -119 379 -183 515 -49 104
-204 381 -221 395 -3 3 -19 25 -35 49 -16 25 -33 50 -37 55 -165 210 -511 546
-602 585 -113 49 -105 123 23 239 45 41 101 78 153 103 45 22 89 44 99 49 58
32 201 62 316 67 119 6 122 5 122 -15 0 -12 40 -104 89 -204 114 -236 123
-257 177 -396 24 -65 49 -126 53 -138 15 -34 81 -264 91 -313 5 -25 16 -76 24
-112 8 -36 17 -90 20 -120 4 -30 9 -65 11 -79 7 -42 14 -102 20 -180 7 -97 11
-142 29 -335 8 -88 17 -190 20 -228 3 -37 7 -71 11 -76 20 -33 233 147 336
284 81 107 212 305 206 312 -4 3 -25 1 -49 -5 -23 -6 -44 -9 -47 -7 -7 8 60
158 121 270 154 282 377 573 657 857 153 156 72 114 -109 -56 -165 -156 -327
-347 -457 -541 -34 -49 -80 -106 -104 -126 -24 -20 -93 -82 -152 -138 -60 -56
-128 -111 -150 -123 -55 -28 -125 -29 -162 -1 -26 18 -31 34 -56 154 -51 254
-147 609 -165 609 -2 0 -9 -20 -15 -45 -7 -28 -17 -45 -26 -45 -21 0 -13 69
49 390 70 366 221 819 438 1314 72 165 314 645 398 792 219 378 417 630 643
819 225 188 466 287 729 301 193 10 350 -29 485 -121 33 -23 134 -79 225 -125
498 -255 904 -605 1177 -1015 85 -128 193 -347 193 -391 0 -8 -19 -45 -43 -82
-90 -139 -108 -172 -181 -322 -151 -315 -238 -617 -276 -960 -12 -107 -16
-412 -6 -485 3 -22 8 -67 11 -100 10 -93 44 -248 82 -375 19 -63 36 -116 38
-118 2 -2 66 32 142 75 145 83 319 170 407 204 28 11 60 24 71 29 92 45 566
194 745 234 41 10 100 23 130 31 30 7 84 18 120 24 36 6 76 13 90 16 14 2 36
7 50 10 14 2 45 7 70 10 25 3 72 10 105 15 33 5 98 12 145 16 134 10 108 17
-40 10 -452 -22 -718 -67 -1171 -197 -195 -56 -271 -70 -379 -71 -105 -1 -157
10 -240 52 -99 50 -191 149 -242 260 -25 57 -11 393 28 630 116 705 493 1313
1038 1672 80 53 170 101 456 244 100 50 238 80 644 139 118 17 277 -2 392 -46
86 -33 151 -70 293 -166 52 -35 95 -62 97 -60 7 7 -141 159 -202 208 l-67 53
29 23 c16 13 38 29 49 34 11 6 7 -1 -10 -14 -23 -20 -27 -28 -18 -38 9 -9 20
-5 50 18 62 48 182 119 265 157 208 95 421 126 624 91 327 -57 614 -222 932
-538 345 -341 682 -843 922 -1371 124 -273 245 -673 294 -971 68 -407 70 -763
5 -1088 -28 -140 -83 -313 -134 -425 -33 -70 -39 -90 -22 -71 141 161 417 494
475 572 l37 51 6 236 c4 129 7 261 8 293 1 43 5 57 16 57 10 0 15 10 15 31 0
61 23 219 33 219 5 0 7 -11 3 -23 -3 -13 -13 -145 -21 -293 -8 -147 -20 -273
-25 -278 -11 -11 -12 -102 -2 -159 l7 -39 110 140 111 139 14 124 c13 118 14
122 22 76 5 -30 5 -54 -2 -66 -5 -11 -7 -33 -4 -49 l6 -30 33 37 c27 31 201
259 365 481 25 33 66 89 92 123 26 34 70 94 97 132 28 39 89 124 137 190 115
158 362 529 453 680 40 66 91 149 114 185 55 90 195 367 208 413 16 59 134
177 211 212 56 25 69 27 147 23 101 -6 167 -32 270 -105 123 -87 231 -214 344
-399 9 -16 42 -60 73 -99 105 -133 189 -330 231 -540 25 -124 25 -475 0 -620
-59 -340 -179 -705 -379 -1155 -103 -232 -197 -440 -263 -580 -189 -404 -298
-637 -307 -652 -16 -32 8 -19 84 46 82 70 143 144 205 251 47 81 74 108 125
130 130 54 258 -41 258 -191 l0 -61 36 -6 c76 -13 140 -92 150 -185 3 -26 -1
-87 -9 -137 -8 -49 -13 -92 -11 -93 5 -7 52 154 64 218 32 176 68 269 136 348
127 149 310 171 522 63 l42 -21 1 32 2 33 10 -37 c22 -79 29 -36 26 155 -5
298 2 1523 9 1623 l7 89 6 -90 c4 -49 10 -488 14 -975 l7 -885 37 -31 36 -32
7 612 c3 336 10 726 15 866 l8 255 6 -365 c3 -201 7 -598 8 -883 l1 -519 48
-53 c26 -30 67 -92 91 -140 25 -47 50 -89 57 -93 18 -10 87 -100 119 -155 42
-73 42 -72 53 203 4 105 10 168 15 158 5 -9 12 -90 15 -180 l7 -164 82 86 81
86 2 199 c0 110 -2 214 -5 230 -4 20 0 45 14 75 l21 45 -5 -240 c-3 -132 -8
-253 -12 -269 -5 -27 1 -24 78 44 281 243 552 380 804 406 l67 7 -6 321 c-3
177 -11 364 -16 416 -6 52 -12 105 -13 116 -2 19 -6 17 -42 -18 -114 -115
-229 -158 -358 -136 -120 21 -190 69 -247 173 -68 124 -72 229 -13 369 52 124
173 267 274 323 27 16 49 35 49 43 0 12 2 12 9 1 7 -10 13 -11 30 -2 27 15
146 16 197 2 47 -13 72 -38 105 -105 l24 -49 7 39 c4 21 13 175 19 341 l12
303 -41 52 c-22 29 -47 67 -56 85 -9 17 -19 34 -23 36 -5 3 -39 -23 -77 -58
-37 -34 -102 -80 -144 -101 -65 -34 -86 -39 -154 -43 -84 -3 -144 12 -201 51
-39 28 -113 180 -128 264 -24 138 -1 278 70 438 30 66 30 66 8 66 -17 -1 -47
-38 -139 -180 -65 -99 -129 -187 -143 -196 -37 -24 -100 -30 -129 -10 -14 9
-40 45 -57 81 -41 82 -40 87 85 305 72 125 92 169 85 182 -28 52 3 244 57 350
37 74 118 181 172 229 92 81 160 97 240 59 34 -17 47 -32 77 -91 26 -52 35
-83 35 -120 l0 -51 45 3 c24 2 47 0 51 -4 20 -20 25 2 22 95 -3 94 -1 103 16
106 27 6 36 -15 36 -87 0 -114 20 -151 86 -163 11 -2 25 -10 31 -18 11 -13 14
-13 23 0 6 9 10 10 10 3 0 -7 18 -29 40 -49 22 -21 40 -44 40 -52 0 -7 9 -25
20 -39 11 -14 20 -32 20 -41 0 -17 -66 -141 -125 -232 -84 -132 -104 -167
-140 -245 -20 -44 -37 -95 -38 -112 0 -18 -5 -33 -9 -33 -4 0 -8 -7 -8 -15 0
-28 18 -15 71 53 91 115 166 235 209 338 23 54 53 120 66 146 23 45 24 56 24
255 0 154 5 244 20 348 19 129 20 171 14 543 l-7 402 35 0 36 0 6 -57 c17
-170 19 -214 6 -238 -7 -13 -10 -33 -7 -45 3 -12 1 -33 -6 -47 -9 -21 -8 -27
8 -39 17 -13 18 -17 6 -47 -43 -104 -49 -135 -55 -298 -6 -143 -5 -167 8 -179
20 -15 20 -34 2 -49 -8 -7 -15 -44 -19 -98 -4 -49 -10 -121 -13 -162 -5 -55
-4 -72 4 -67 8 4 12 0 12 -12 0 -43 16 -28 55 50 27 56 51 90 72 103 37 24 39
31 54 210 6 77 13 142 15 144 13 14 18 -26 19 -149 0 -106 -3 -140 -12 -140
-7 0 -13 -7 -13 -15 0 -11 7 -14 23 -10 78 17 174 23 228 13 45 -8 63 -7 74 2
9 7 17 11 19 9 11 -15 46 -92 46 -103 0 -7 9 -21 20 -31 11 -10 20 -26 20 -35
0 -10 -23 -61 -50 -115 l-51 -96 3 -107 c2 -59 7 -107 12 -107 5 0 31 51 57
113 46 107 49 119 50 205 1 51 5 121 9 157 7 48 8 29 5 -75 l-4 -140 64 126
c63 125 64 126 117 149 42 19 75 25 163 28 66 2 128 -1 154 -8 47 -12 96 -53
85 -71 -3 -6 3 -17 15 -25 12 -8 21 -26 21 -38 0 -13 -33 -93 -74 -177 -84
-173 -175 -400 -206 -511 -21 -75 -26 -138 -12 -138 16 0 52 41 100 113 115
172 155 250 212 416 69 199 141 374 164 400 29 32 102 46 231 45 101 -1 128
-4 170 -23 54 -24 65 -35 65 -67 0 -12 7 -24 15 -28 27 -10 16 -46 -54 -185
-123 -243 -217 -504 -228 -635 l-6 -68 29 15 c47 25 137 124 213 236 55 81 71
112 71 140 0 51 38 305 56 376 40 155 131 279 230 310 110 34 181 4 234 -101
34 -66 35 -73 35 -179 0 -143 -24 -217 -126 -386 -42 -70 -79 -140 -83 -155
l-8 -29 30 28 c17 16 46 67 66 117 109 261 301 470 530 575 98 45 173 59 271
50 44 -4 98 -8 120 -9 44 -1 95 -28 95 -50 0 -8 18 -52 40 -97 22 -46 40 -97
40 -113 -1 -82 -52 -208 -127 -314 -105 -148 -343 -351 -476 -407 -44 -18 -52
-32 -38 -68 7 -18 21 -29 49 -36 80 -22 212 45 315 160 64 70 197 266 271 399
48 85 48 85 37 140 -35 181 125 499 303 601 62 35 106 37 166 7 59 -30 112
-125 114 -203 l1 -50 75 -12 c56 -9 76 -9 82 0 4 7 12 4 25 -10 23 -27 87 -45
102 -30 8 8 11 6 11 -9 0 -23 81 -79 91 -62 3 5 10 -7 14 -28 3 -21 13 -47 21
-58 33 -48 13 -93 -159 -361 -78 -121 -142 -270 -135 -316 l3 -24 25 29 c14
16 33 36 43 45 10 9 41 52 68 96 28 44 58 91 69 105 10 14 34 50 53 81 30 48
42 58 92 77 l57 22 42 -40 41 -40 5 49 c6 57 6 57 43 66 30 8 33 1 16 -42 -8
-22 -7 -30 6 -39 9 -7 12 -14 6 -15 -10 -4 -14 -21 -12 -62 0 -16 5 -26 10
-23 12 8 20 -148 27 -567 l7 -378 30 28 c41 39 155 168 140 160 -7 -4 -14 0
-17 10 -6 21 -5 94 1 76 3 -7 17 -14 31 -14 27 -1 27 -1 -3 -9 l-30 -8 28 -1
c15 0 27 -6 27 -12 0 -8 4 -8 14 0 10 8 16 48 21 129 12 184 24 226 18 60 -3
-82 -2 -148 2 -148 4 0 41 32 81 72 72 70 74 73 74 121 0 29 4 46 10 42 6 -3
10 -19 10 -36 0 -32 11 -37 31 -13 46 55 474 371 635 469 199 121 238 142 439
243 530 266 1091 436 1730 526 99 14 209 28 245 31 36 2 121 10 190 15 161 13
792 13 935 0 531 -49 1054 -206 1410 -423 270 -164 484 -363 611 -567 22 -34
71 -105 109 -159 96 -131 116 -164 168 -267 228 -455 236 -1024 22 -1668 -109
-327 -299 -669 -510 -916 -153 -178 -406 -409 -570 -518 -134 -89 -331 -203
-447 -260 -65 -31 -118 -59 -117 -62 0 -3 67 -38 148 -77 193 -95 420 -246
545 -364 104 -98 228 -246 291 -348 22 -34 72 -106 111 -159 127 -174 204
-323 267 -512 133 -400 127 -912 -19 -1485 -37 -147 -129 -416 -170 -497 -38
-75 -36 -88 12 -88 12 0 37 -7 57 -15 122 -51 953 -245 1262 -295 72 -11 150
-25 175 -30 65 -13 232 -36 415 -59 388 -48 552 -60 920 -68 706 -14 1332 70
1863 251 213 73 317 117 552 237 117 60 215 103 245 109 72 12 138 -4 186 -47
46 -42 63 -88 57 -159 l-5 -53 38 -6 c51 -9 117 -58 135 -100 35 -85 12 -184
-81 -346 -136 -238 -256 -392 -469 -604 -558 -557 -1289 -865 -2216 -935 -246
-18 -664 -9 -930 20 -131 15 -346 44 -440 60 -680 116 -1273 285 -1975 564
-283 112 -341 136 -559 234 l-200 89 -95 -75 c-382 -298 -894 -555 -1386 -692
-115 -33 -356 -87 -415 -95 -30 -4 -71 -10 -90 -15 -142 -35 -591 -57 -832
-41 -301 20 -508 69 -726 172 -237 111 -431 284 -539 479 -20 36 -48 79 -63
95 -81 89 -161 232 -211 375 -18 52 -33 96 -34 97 0 1 -30 -6 -65 -17 -97 -29
-244 -34 -352 -10 -200 44 -380 184 -492 384 -27 47 -52 86 -56 86 -9 0 -20
-71 -24 -155 -12 -232 -27 -746 -24 -820 l3 -90 80 -42 c44 -23 83 -42 88 -43
4 0 7 15 7 33 0 50 25 122 44 125 20 4 20 3 2 -40 -12 -27 -12 -44 -4 -76 6
-23 14 -42 19 -42 5 0 9 -7 9 -15 0 -9 10 -19 23 -24 27 -10 179 -47 228 -55
31 -6 45 -18 93 -84 31 -42 86 -122 123 -177 133 -202 326 -395 538 -536 109
-74 353 -194 491 -243 522 -185 1215 -213 1934 -79 629 117 1251 358 1754 681
68 43 70 44 105 29 20 -8 137 -55 261 -105 865 -349 1617 -557 2430 -671 1406
-199 2628 36 3550 680 495 347 907 814 1159 1318 106 211 137 349 128 569 -6
156 -31 262 -93 385 -39 78 -108 180 -143 212 -12 10 -38 49 -57 85 -112 214
-331 390 -580 467 -83 25 -101 27 -274 27 -171 1 -192 -1 -280 -26 -116 -32
-187 -63 -355 -153 -393 -210 -803 -328 -1368 -392 -216 -24 -905 -24 -1162 0
-99 9 -185 17 -192 17 -16 0 -21 -38 -27 -218 -4 -125 -8 -156 -22 -169 -16
-16 -17 -4 -13 187 l4 205 -40 6 c-22 4 -89 13 -150 19 -60 6 -148 18 -195 26
-47 9 -110 19 -140 24 -140 23 -200 34 -410 76 -124 25 -228 49 -233 53 -4 4
4 65 17 137 54 287 81 582 73 808 -18 548 -166 1032 -438 1429 -42 62 -120
175 -172 252 -53 77 -130 180 -171 230 l-76 89 153 156 c171 173 222 232 324
370 307 417 522 892 637 1406 188 843 62 1590 -371 2190 -31 44 -77 111 -101
149 -98 150 -192 266 -337 411 -206 206 -384 340 -643 483 -479 264 -1103 440
-1707 481 -173 12 -719 15 -875 5 -755 -49 -1380 -175 -1986 -401 -452 -167
-854 -373 -1238 -631 l-139 -93 -23 21 c-13 12 -29 38 -35 58 -6 20 -36 83
-67 141 -45 85 -73 122 -142 190 -80 80 -185 160 -210 160 -8 0 -9 -33 -4
-117 4 -64 8 -195 8 -290 1 -95 4 -173 9 -173 11 0 8 -126 -4 -176 -17 -67
-33 -68 -26 -1 3 32 2 57 -2 57 -6 0 -16 151 -38 604 l-6 129 -32 19 c-18 10
-58 52 -90 93 -60 78 -128 140 -144 131 -5 -3 -11 3 -14 13 -12 47 -263 144
-402 156 -204 17 -453 -68 -610 -210 -23 -21 -45 -33 -54 -30 -8 3 -56 8 -106
12 -103 7 -251 -9 -351 -37 l-65 -18 -57 34 c-124 75 -251 107 -422 107 -136
0 -233 -20 -338 -68 -55 -25 -56 -25 -178 -13 -131 13 -295 2 -400 -26 -45
-12 -62 -11 -145 5 -116 23 -302 24 -417 4 -46 -8 -87 -17 -90 -19 -4 -2 -48
6 -98 19 -50 13 -129 26 -176 30 l-85 7 5 72 c5 83 -22 229 -60 321 -64 159
-190 323 -307 399 -97 64 -124 75 -228 102 -215 54 -439 9 -607 -123 l-58 -46
-67 13 c-101 19 -210 56 -396 132 -353 145 -512 197 -735 243 -695 141 -1334
-65 -1672 -540 -54 -76 -124 -209 -153 -292 -16 -45 -24 -54 -53 -64 -70 -23
-245 -151 -340 -248 -121 -123 -189 -226 -267 -404 -58 -132 -88 -188 -222
-417 -87 -148 -653 -970 -667 -970 -2 0 -14 37 -26 83 -60 222 -203 543 -406
907 -161 289 -360 596 -499 770 -185 232 -483 528 -719 715 -422 334 -828 485
-1309 485 -250 0 -472 -68 -771 -235 l-64 -35 -101 15 c-177 26 -422 19 -661
-21 -205 -34 -524 -152 -796 -294 -192 -100 -273 -151 -515 -328 -16 -12 -22
-9 -55 30 -21 24 -94 99 -163 168 -260 259 -581 493 -935 683 -72 38 -183 101
-246 138 -141 84 -269 138 -431 179 -115 30 -138 32 -314 35 -104 2 -203 1
-220 -1z m13432 -828 c-3 -6 -11 -10 -18 -8 -10 3 -11 0 -3 -8 6 -6 9 -22 6
-36 -7 -36 -22 -10 -22 38 0 31 3 35 20 31 12 -3 19 -11 17 -17z m-141 -28
c13 -25 14 -38 5 -67 -6 -20 -8 -46 -5 -58 3 -11 1 -31 -6 -42 -9 -18 -7 -27
11 -52 11 -17 20 -31 18 -33 -15 -11 -71 -27 -76 -22 -10 9 17 280 28 284 5 2
7 8 3 13 -3 5 -3 9 0 9 3 0 13 -14 22 -32z m-1953 -73 c128 -19 277 -56 407
-101 55 -18 105 -34 111 -34 6 0 23 -8 37 -19 15 -10 56 -28 92 -41 36 -12 82
-31 104 -42 110 -56 348 -130 510 -159 248 -44 427 -10 539 103 71 70 91 82
125 73 36 -9 61 -32 77 -72 8 -18 18 -33 24 -33 21 0 31 -69 30 -209 -2 -138
-2 -142 -10 -67 -11 103 -13 107 -32 69 -11 -21 -17 -58 -18 -105 -2 -112 -17
-141 -18 -35 l-1 89 -32 -22 c-137 -90 -383 -133 -654 -112 -181 14 -264 31
-414 83 -95 34 -125 40 -172 37 -102 -7 -128 -55 -128 -230 0 -116 9 -177 42
-285 l23 -73 103 0 c96 0 105 2 122 23 l18 22 7 -26 c4 -17 17 -29 42 -38 26
-10 40 -24 55 -55 10 -22 27 -53 36 -68 13 -21 14 -31 4 -52 -18 -40 -50 -54
-153 -65 -52 -6 -110 -18 -127 -27 -40 -19 -41 -43 -11 -182 31 -139 29 -296
-6 -417 -26 -92 -87 -226 -137 -299 l-28 -41 -1 -210 c-1 -142 -4 -192 -9
-155 -4 30 -5 92 -2 138 3 57 1 90 -8 107 -7 13 -10 35 -8 49 4 21 -10 11 -81
-57 -121 -114 -236 -170 -374 -183 -89 -7 -120 4 -146 53 -11 21 -25 48 -32
60 -10 18 -10 32 0 63 9 32 27 53 84 98 107 85 147 129 180 201 54 115 48 287
-21 646 l-18 90 -54 -3 c-30 -1 -91 -9 -135 -17 -44 -9 -127 -16 -185 -18
-146 -3 -171 14 -236 152 -29 62 2 148 64 180 68 35 153 44 343 36 l177 -7 4
149 c7 212 55 367 146 474 19 22 33 42 31 44 -15 14 -191 38 -319 42 -252 9
-392 -14 -530 -88 -64 -34 -216 -156 -290 -233 -67 -70 -93 -64 -151 35 -49
84 -57 137 -35 239 81 383 514 602 1039 525z m2841 -688 c-1 -34 -2 -75 -3
-92 0 -16 -1 -75 -1 -130 0 -55 -4 -113 -9 -130 -6 -20 -10 50 -10 205 -1 187
2 232 12 222 7 -8 12 -37 11 -75z m-889 -27 c4 -36 8 -137 11 -225 3 -124 1
-154 -7 -135 -7 15 -13 109 -16 230 -4 204 1 252 12 130z m563 42 c6 -25 3
-122 -4 -133 -13 -21 -25 5 -19 40 3 21 6 57 7 80 0 41 8 47 16 13z m452 -154
c0 -16 -3 -19 -11 -11 -6 6 -8 16 -5 22 11 17 16 13 16 -11z m-2071 -175 l0
-88 -16 50 c-8 28 -16 76 -18 108 -2 57 -2 58 16 38 16 -17 19 -35 18 -108z
m2058 -25 c-2 -24 -4 -5 -4 42 0 47 2 66 4 43 2 -24 2 -62 0 -85z m-1057 72
c0 -5 -5 -10 -11 -10 -5 0 -7 5 -4 10 3 6 8 10 11 10 2 0 4 -4 4 -10z m1047
-192 c-3 -8 -6 -5 -6 6 -1 11 2 17 5 13 3 -3 4 -12 1 -19z m-1999 -669 l-4
-34 -17 37 c-9 21 -17 45 -17 55 0 16 2 15 21 -3 15 -15 19 -30 17 -55z m15
-224 c6 -142 5 -148 -10 -115 -8 19 -19 43 -24 52 -13 25 -11 39 5 52 11 9 12
22 3 73 -8 49 -8 65 3 78 7 8 14 14 15 13 1 -2 5 -70 8 -153z m-3479 -257 c-3
-21 -10 -38 -16 -38 -6 0 -8 12 -4 31 3 17 7 59 7 93 l1 61 9 -55 c5 -30 6
-72 3 -92z m-17 -110 c-3 -8 -6 -5 -6 6 -1 11 2 17 5 13 3 -3 4 -12 1 -19z
m-16 -105 c-9 -16 -10 -16 -11 3 0 12 3 37 8 55 l7 34 3 -37 c2 -21 -1 -46 -7
-55z m3904 -362 c-2 -25 -4 -54 -5 -63 0 -24 -30 -23 -30 1 0 11 -6 22 -12 24
-9 4 -5 12 11 25 20 16 22 22 12 40 -6 11 -8 28 -4 38 12 33 33 -14 28 -65z
m-345 -124 c0 -107 -3 -138 -12 -134 -7 2 -11 13 -9 23 3 10 3 78 2 149 -1 92
1 126 8 115 6 -8 11 -75 11 -153z m4 -198 c-3 -70 -5 -77 -14 -49 -13 41 -12
92 2 88 8 -3 12 -19 12 -39z m-567 -222 c-2 -23 -3 -1 -3 48 0 50 1 68 3 42 2
-26 2 -67 0 -90z m574 -92 c4 -69 2 -80 -13 -83 -16 -3 -18 5 -18 70 0 143 25
154 31 13z m183 -270 c3 -68 2 -109 -3 -95 -4 14 -10 86 -13 160 -3 75 -2 117
2 95 5 -22 11 -94 14 -160z m-169 57 c-3 -7 -9 -10 -15 -7 -12 7 -14 98 -2
109 8 9 24 -83 17 -102z m0 -112 c0 -54 -4 -85 -11 -87 -8 -3 -13 23 -16 79
-5 89 -3 101 15 95 8 -2 12 -33 12 -87z m-1555 -24 c0 -3 -4 -8 -10 -11 -5 -3
-10 -1 -10 4 0 6 5 11 10 11 6 0 10 -2 10 -4z m-14 -134 c-13 -12 -15 7 -8 59
l7 54 3 -54 c2 -29 1 -56 -2 -59z m1587 -399 c7 -387 0 -602 -18 -593 -6 3 -8
33 -5 75 5 68 5 259 1 380 -2 33 -2 69 -2 80 1 11 -1 90 -3 175 -2 85 -2 179
1 208 13 125 21 27 26 -325z m354 250 c-3 -10 -5 -2 -5 17 0 19 2 27 5 18 2
-10 2 -26 0 -35z m-1032 -76 c-20 -62 -31 -84 -41 -80 -8 3 -14 8 -14 12 0 12
74 161 78 157 2 -3 -8 -43 -23 -89z m861 -43 c2 -38 9 -114 15 -168 10 -95 10
-100 -11 -120 l-21 -21 6 47 c4 26 4 56 0 65 -5 10 -7 28 -6 41 1 12 -3 38 -9
57 -9 27 -9 52 0 106 7 39 14 68 17 66 2 -3 6 -36 9 -73z m671 -251 c-2 -21
-4 -4 -4 37 0 41 2 58 4 38 2 -21 2 -55 0 -75z m-1491 -108 c-11 -55 -14 -62
-15 -33 -1 42 23 153 27 123 1 -11 -4 -51 -12 -90z m-14751 -69 c23 -16 23
-72 -1 -117 -18 -35 -15 -70 11 -139 30 -80 -4 -158 -117 -266 -278 -266 -537
-406 -647 -350 -37 19 -66 63 -76 112 l-6 34 -38 -44 c-21 -24 -51 -65 -67
-91 -103 -167 -194 -224 -194 -122 0 104 203 421 361 561 24 22 84 76 132 120
49 45 121 102 160 129 70 46 266 147 337 173 46 17 122 17 145 0z m28036
-4659 c-10 -9 -11 -8 -5 6 3 10 9 15 12 12 3 -3 0 -11 -7 -18z"/>
<path d="M2362 7503 c-35 -19 -61 -38 -58 -40 8 -8 91 35 111 57 23 26 22 25
-53 -17z"/>
<path d="M5765 12561 c-79 -28 -99 -37 -134 -66 -49 -42 -20 -50 52 -13 126
63 273 72 402 23 126 -47 228 -135 334 -287 l50 -72 -30 -35 c-194 -235 -396
-540 -572 -866 -103 -192 -219 -402 -361 -657 -69 -125 -126 -230 -126 -233 0
-3 8 -5 18 -5 10 0 33 25 56 63 82 129 236 388 326 547 347 614 423 742 588
990 l123 184 -16 42 c-50 132 -208 289 -350 349 -124 52 -269 67 -360 36z"/>
<path d="M5501 12133 c-24 -120 -50 -249 -57 -288 -7 -38 -16 -81 -19 -95 -3
-14 -8 -38 -10 -55 -3 -16 -17 -86 -30 -155 -14 -69 -27 -143 -31 -165 -3 -22
-9 -58 -14 -80 -24 -113 -101 -615 -125 -818 -28 -230 -13 -189 60 163 55 267
86 442 81 448 -4 3 -6 0 -6 -6 0 -7 -5 -12 -10 -12 -6 0 -8 12 -6 28 2 15 7
54 11 87 13 126 43 244 68 270 12 12 81 403 107 610 6 44 13 94 15 110 9 56
18 175 14 175 -3 0 -24 -98 -48 -217z"/>
<path d="M5255 12175 c-50 -26 -73 -43 -42 -32 10 4 26 1 36 -6 16 -11 15 -27
-16 -257 -18 -135 -53 -409 -78 -610 -52 -419 -47 -377 -79 -670 -14 -124 -28
-244 -31 -267 -5 -35 -3 -43 10 -43 8 0 18 6 20 13 8 23 131 999 179 1422 8
72 22 192 31 269 9 76 14 145 11 152 -3 8 1 14 9 14 17 0 19 9 7 27 -6 9 -20
6 -57 -12z"/>
<path d="M5145 12107 c-165 -131 -221 -202 -417 -527 -121 -200 -166 -288
-215 -413 -33 -86 -33 -88 -18 -133 8 -25 20 -66 25 -92 6 -26 19 -83 31 -127
11 -44 29 -114 39 -155 103 -413 123 -480 141 -480 39 0 39 23 -2 165 -52 182
-96 327 -171 557 l-60 186 47 104 c53 115 167 329 228 428 93 149 272 377 367
467 62 60 64 68 5 20z"/>
<path d="M6504 11853 c-120 -160 -392 -570 -653 -983 -105 -168 -221 -349
-256 -402 -61 -93 -63 -98 -40 -98 20 0 43 29 143 178 132 197 231 352 412
647 154 250 239 382 357 557 52 76 96 144 99 153 14 34 -14 11 -62 -52z"/>
<path d="M6580 11906 c0 -3 14 -58 31 -123 53 -203 69 -321 76 -544 6 -219 -1
-307 -39 -454 -21 -83 -28 -95 -66 -95 -34 0 -169 -88 -405 -264 -87 -65 -105
-82 -90 -87 44 -18 67 -7 210 102 173 131 277 200 317 208 26 6 31 14 52 86
44 153 59 267 59 470 0 251 -6 298 -65 510 -29 100 -65 195 -75 195 -3 0 -5
-2 -5 -4z"/>
<path d="M15895 11152 c-55 -36 -92 -86 -134 -182 -316 -720 -1523 -2345
-2974 -4002 l-277 -318 -43 5 c-23 3 -168 17 -322 30 -319 29 -1724 183 -1736
191 -5 3 -42 55 -83 117 -134 201 -270 338 -471 472 -529 354 -1335 508 -2190
420 -967 -100 -1760 -527 -2365 -1275 -424 -524 -730 -1101 -905 -1707 -287
-990 -173 -2093 287 -2767 40 -59 99 -148 130 -197 103 -160 169 -242 302
-374 196 -195 389 -322 643 -423 269 -107 539 -160 869 -169 408 -11 801 45
1244 179 475 143 872 331 1375 651 1045 665 2284 1875 3566 3484 100 125 185
231 188 236 4 4 45 -1 92 -12 46 -11 163 -32 259 -46 95 -14 175 -27 176 -28
1 -1 -23 -76 -53 -167 -377 -1128 -454 -2159 -207 -2758 48 -117 84 -180 164
-287 37 -49 75 -106 85 -125 81 -159 238 -317 395 -395 260 -131 650 -157 935
-64 225 74 442 245 594 469 113 165 153 267 114 289 -16 8 -33 4 -84 -21 -79
-37 -182 -73 -238 -83 l-42 -7 64 94 c112 162 154 268 111 285 -8 3 -54 -13
-102 -36 -256 -121 -523 -110 -759 30 -62 38 -73 57 -103 176 -122 475 56
1306 536 2510 l49 122 107 26 c465 112 855 339 1110 643 221 263 365 587 413
924 16 114 9 150 -20 102 -75 -123 -138 -204 -221 -284 -53 -50 -98 -90 -100
-87 -2 2 14 47 36 101 53 129 86 246 110 384 22 127 25 172 10 172 -5 0 -19
-19 -31 -42 -100 -196 -308 -385 -563 -508 -97 -47 -266 -114 -272 -107 -2 1
92 205 207 452 719 1539 834 1817 919 2235 103 508 36 914 -198 1195 -28 33
-71 94 -95 135 -147 246 -392 412 -502 342z m-1381 -3584 c-69 -134 -209 -411
-311 -615 l-187 -373 -113 0 c-62 0 -113 2 -113 4 0 3 78 114 173 248 206 289
391 558 552 801 65 97 120 177 122 177 1 0 -54 -109 -123 -242z m-6681 131
c-6 -6 -62 -24 -124 -40 -62 -16 -223 -65 -357 -109 -134 -44 -247 -80 -252
-80 -26 0 -301 -110 -427 -170 -499 -239 -908 -580 -1285 -1070 -40 -53 -145
-198 -233 -323 -88 -126 -161 -221 -163 -214 -6 28 167 348 267 495 179 264
361 479 541 643 311 284 580 472 855 599 190 88 316 132 617 216 139 38 589
81 561 53z m1152 -739 c119 -11 226 -29 237 -39 4 -4 -35 -12 -87 -19 -125
-17 -338 -71 -451 -115 -434 -168 -735 -461 -862 -842 -38 -114 -51 -177 -61
-301 -26 -306 72 -634 251 -841 21 -25 50 -68 65 -96 62 -124 202 -279 332
-366 221 -150 505 -218 794 -193 384 35 674 165 945 427 172 165 296 337 408
568 35 73 66 147 69 163 2 16 20 88 39 159 20 72 44 183 53 248 l16 117 36 0
c80 0 887 -83 896 -92 7 -7 -637 -668 -966 -993 -912 -900 -1846 -1711 -2359
-2048 -394 -258 -841 -480 -1219 -607 -504 -168 -983 -190 -1308 -60 -136 54
-289 163 -322 229 -70 137 -107 313 -120 566 -44 845 199 1682 712 2449 298
446 717 890 1087 1150 576 406 1207 592 1815 536z m7072 -42 c-51 -75 -223
-221 -374 -321 -106 -70 -262 -152 -271 -143 -3 4 5 27 17 54 22 45 27 49 138
102 162 76 335 190 460 302 52 47 59 48 30 6z m-6313 -231 c16 -12 -1 -15
-124 -21 -358 -17 -630 -81 -925 -217 -195 -91 -217 -102 -300 -162 -190 -137
-323 -319 -376 -515 -23 -87 -29 -98 -29 -55 0 38 54 222 82 277 33 67 155
231 201 271 23 20 56 49 72 64 37 33 137 101 185 124 19 10 42 22 50 27 8 5
31 16 50 24 19 8 67 28 107 45 82 36 300 94 417 111 235 35 559 50 590 27z
m1181 -52 c281 -28 789 -90 1346 -165 206 -27 386 -50 402 -50 18 0 27 -5 27
-16 0 -19 26 -20 -420 22 -248 23 -1599 169 -1665 179 -20 4 -36 15 -47 36
l-18 31 63 -6 c34 -4 175 -18 312 -31z m5315 19 c0 -3 -30 -35 -67 -72 -42
-42 -61 -56 -50 -37 10 17 39 49 65 73 47 43 52 46 52 36z m-2442 -331 c-27
-2 -69 -2 -95 0 -27 2 -5 3 47 3 52 0 74 -1 48 -3z m-3811 -520 c-17 -139
-112 -367 -218 -527 -76 -113 -188 -227 -289 -295 -160 -107 -305 -144 -555
-144 -185 0 -270 17 -395 80 -85 43 -88 48 -89 163 -2 184 84 364 228 480 73
59 210 127 329 164 218 68 577 116 931 125 l64 1 -6 -47z"/>
<path d="M6370 5179 c-25 -4 -68 -8 -96 -8 l-51 -1 -70 -112 c-209 -337 -359
-668 -462 -1021 -112 -381 -164 -827 -141 -1205 12 -207 21 -262 61 -389 29
-91 30 -92 97 -142 173 -130 372 -179 689 -168 164 5 307 27 477 72 81 21 339
106 351 115 6 4 30 14 55 23 120 42 347 151 580 280 389 215 600 365 1125 802
272 227 265 220 491 425 94 84 94 84 94 132 0 26 -2 48 -4 48 -3 0 -16 -4 -30
-10 -19 -7 -26 -17 -28 -47 l-4 -38 -13 33 c-13 32 -16 33 -50 28 -318 -52
-548 -43 -790 29 -123 38 -291 124 -401 207 -94 71 -96 72 -226 103 -72 18
-151 40 -175 48 -336 122 -414 154 -587 241 -270 135 -506 292 -739 488 -51
43 -96 77 -100 77 -4 -1 -28 -5 -53 -10z m1430 -1708 c-7 -28 -17 -51 -23 -51
-7 0 -5 -5 3 -10 11 -7 12 -12 3 -21 -17 -17 -34 -1 -29 27 6 33 47 117 53
110 3 -3 0 -28 -7 -55z m-270 -32 c0 -17 -4 -28 -10 -24 -5 3 -10 17 -10 31 0
13 5 24 10 24 6 0 10 -14 10 -31z m223 -89 c-3 -12 -8 -19 -11 -16 -5 6 5 36
12 36 2 0 2 -9 -1 -20z m-26 -52 c-3 -8 -6 -5 -6 6 -1 11 2 17 5 13 3 -3 4
-12 1 -19z m33 -8 c-6 -11 -16 -20 -22 -20 -6 0 -3 9 7 20 10 11 20 20 22 20
2 0 -1 -9 -7 -20z m-9 -47 c13 -16 12 -17 -3 -4 -10 7 -18 15 -18 17 0 8 8 3
21 -13z m-29 -180 c5 -7 7 -22 3 -34 -6 -17 -9 -19 -17 -8 -8 11 -9 10 -4 -3
7 -24 -3 -48 -20 -48 -16 0 -19 42 -5 86 5 16 13 47 17 69 l8 40 4 -45 c2 -24
8 -50 14 -57z"/>
<path d="M9708 4074 c-16 -8 -28 -19 -28 -25 0 -12 31 4 50 25 15 19 13 19
-22 0z"/>
<path d="M9608 4039 c-18 -10 -27 -79 -11 -79 15 0 63 55 63 72 0 20 -25 23
-52 7z"/>
<path d="M18990 11151 c-7 -14 -7 -22 1 -27 10 -6 28 11 29 28 0 17 -20 17
-30 -1z"/>
<path d="M5361 11124 c0 -11 3 -14 6 -6 3 7 2 16 -1 19 -3 4 -6 -2 -5 -13z"/>
<path d="M22448 10803 c-58 -63 -156 -208 -130 -194 51 27 197 220 180 237 -3
2 -25 -17 -50 -43z"/>
<path d="M4317 10787 c-105 -193 -157 -331 -277 -732 -48 -157 -115 -444 -106
-452 7 -7 7 -7 56 187 67 267 124 454 200 660 18 47 35 97 40 112 28 90 100
213 113 191 3 -4 37 -118 75 -253 97 -334 117 -401 123 -402 2 -1 11 2 20 8
15 8 13 20 -18 119 -19 61 -40 124 -47 140 -7 17 -44 126 -82 242 -38 117 -71
213 -74 213 -3 0 -13 -15 -23 -33z"/>
<path d="M19851 10730 c-19 -36 -48 -101 -65 -145 -29 -75 -31 -86 -26 -179
l5 -99 42 74 c23 41 52 97 63 124 12 28 28 62 36 78 14 24 13 27 0 27 -12 0
-16 18 -18 93 l-3 92 -34 -65z"/>
<path d="M23208 10583 c-9 -2 -49 -57 -89 -121 -182 -293 -319 -472 -425 -556
-145 -113 -256 -157 -404 -159 -224 -2 -399 93 -492 268 l-43 80 -45 -3 c-53
-4 -113 12 -153 40 -16 11 -32 17 -36 12 -4 -5 -28 -36 -54 -70 -62 -83 -224
-234 -294 -276 -180 -106 -325 -115 -448 -27 -36 26 -65 63 -120 153 l-17 28
-67 -65 c-37 -37 -99 -84 -141 -108 -65 -36 -85 -42 -151 -46 -67 -5 -81 -2
-127 21 -28 14 -53 26 -55 26 -2 0 -4 -15 -4 -32 -1 -88 -13 -210 -22 -225 -8
-13 -9 25 -4 127 l6 145 -53 82 c-28 46 -56 80 -61 77 -6 -3 -9 -91 -8 -207 1
-111 -2 -253 -6 -314 -5 -82 -4 -113 5 -113 6 0 29 -8 50 -19 21 -10 41 -16
44 -13 4 3 6 28 7 56 1 48 15 113 19 91 1 -5 3 -46 4 -90 1 -65 6 -91 29 -137
15 -32 31 -58 35 -58 5 0 14 93 21 208 17 278 22 335 33 324 4 -4 4 -87 -2
-188 -5 -98 -13 -235 -16 -304 l-6 -125 21 30 c11 16 26 43 33 60 26 63 78
129 115 147 23 11 39 15 41 8 2 -5 34 -10 70 -10 75 0 96 -9 86 -33 -7 -19 4
-21 41 -7 46 18 157 31 202 24 45 -7 101 -38 113 -64 4 -8 18 -35 30 -59 14
-27 25 -72 30 -120 8 -85 13 -78 10 15 -5 163 162 380 276 360 29 -6 63 -40
64 -64 0 -8 9 -25 20 -39 11 -14 20 -36 20 -48 0 -19 7 -24 53 -31 28 -4 59
-8 67 -9 8 0 20 -7 27 -15 6 -8 14 -12 18 -9 9 10 68 -50 70 -71 1 -11 12 -31
24 -44 l23 -24 -90 -154 c-83 -142 -111 -198 -98 -198 10 0 94 126 105 159 42
126 189 297 311 361 54 28 78 35 146 38 115 6 160 -15 203 -94 41 -74 47 -108
28 -161 -8 -24 -13 -43 -11 -43 2 0 18 9 36 20 19 11 51 20 74 20 39 0 45 5
157 124 117 125 188 176 244 176 14 0 23 6 23 15 0 23 41 18 82 -10 33 -23 36
-28 28 -51 -9 -22 -7 -26 19 -35 l29 -10 -19 -44 c-20 -46 -38 -156 -39 -239
l0 -49 41 47 c49 56 85 76 136 76 35 0 46 9 168 133 112 115 138 136 187 155
50 18 65 20 120 11 34 -6 64 -12 67 -15 2 -2 -1 -15 -7 -28 -10 -22 -8 -25 18
-35 l29 -10 -19 -55 c-18 -50 -30 -129 -60 -396 -9 -80 -17 -109 -55 -187 -77
-156 -189 -234 -341 -237 -60 -1 -79 3 -130 29 -51 26 -67 42 -116 115 -32 47
-58 88 -58 92 0 4 -5 19 -11 35 l-10 27 -19 -42 c-30 -66 -107 -158 -164 -196
-68 -44 -117 -59 -198 -59 -87 0 -167 38 -213 100 -16 23 -33 42 -36 42 -3 1
-17 -9 -30 -20 -53 -47 -143 -98 -193 -110 -135 -30 -296 17 -358 106 l-30 42
-51 -50 c-66 -65 -135 -97 -207 -97 -86 0 -116 21 -164 114 -40 77 -41 80 -40
180 0 81 5 110 22 149 12 26 19 47 17 47 -2 0 -34 -45 -70 -100 -72 -109 -99
-133 -142 -128 -21 2 -32 12 -45 40 -10 20 -22 39 -27 42 -6 4 -28 -20 -50
-52 -22 -33 -69 -91 -104 -129 -36 -39 -68 -80 -72 -91 -6 -20 -41 -39 -52
-28 -3 2 -28 -8 -57 -24 -58 -33 -147 -52 -185 -40 -82 26 -76 30 -91 -79 -8
-62 -11 -150 -8 -236 l6 -137 -38 5 c-64 8 -64 10 -57 -199 3 -117 2 -207 -5
-240 -10 -52 -10 -54 26 -101 20 -26 48 -73 63 -103 14 -30 35 -65 46 -77 l19
-22 58 47 c32 26 86 71 121 100 123 102 140 114 262 184 222 128 399 175 630
165 375 -15 678 -183 814 -450 13 -27 50 -80 82 -118 109 -129 162 -260 182
-449 14 -123 5 -243 -31 -430 -95 -487 -279 -904 -789 -1780 -184 -315 -317
-580 -293 -580 21 0 193 150 328 284 390 389 802 983 1109 1596 42 85 81 160
85 165 15 19 177 389 236 540 51 129 66 157 111 206 29 31 78 69 108 85 30 16
54 31 52 34 -105 207 -130 283 -149 455 -27 250 31 611 153 948 51 140 180
416 264 562 39 68 45 86 41 120 -3 22 0 72 5 110 5 39 11 86 13 105 12 133 19
180 27 180 5 0 6 -76 2 -180 -3 -99 -3 -180 0 -180 3 0 25 32 48 71 28 48 38
74 30 78 -8 6 -9 56 -1 192 5 101 10 234 11 294 1 61 7 133 15 161 13 52 13
91 1 111 -4 6 0 17 9 24 14 12 15 -3 10 -152 -4 -90 -11 -211 -18 -269 -7 -69
-8 -146 -2 -225 l9 -120 43 62 c37 55 42 68 42 118 0 93 36 134 42 48 l3 -48
41 57 c41 57 42 60 49 165 4 60 7 138 7 175 -1 46 3 70 14 78 12 11 14 4 16
-46 1 -33 1 -86 0 -119 -1 -33 1 -76 6 -95 l8 -34 38 49 39 50 -7 254 c-3 140
-6 347 -6 460 0 226 2 223 -56 111 -15 -30 -50 -88 -76 -128 -27 -39 -52 -80
-55 -89 -4 -10 -40 -56 -80 -102 -39 -46 -70 -87 -68 -91 2 -4 -1 -7 -8 -7 -7
0 -40 -21 -73 -47 -108 -83 -246 -115 -357 -82 -69 21 -102 50 -146 129 -97
175 -96 385 3 601 20 43 36 80 36 82 0 4 -7 4 -32 -3z m703 -750 c-1 -54 -7
-102 -13 -108 -7 -7 -9 13 -4 69 3 43 6 95 6 114 0 20 3 32 6 29 4 -3 6 -50 5
-104z m-2291 -560 c0 -67 -4 -103 -9 -97 -9 8 -3 204 5 204 2 0 4 -48 4 -107z
m-938 -1072 c-11 -53 -23 -114 -27 -136 -3 -22 -12 -58 -19 -80 -8 -22 -19
-80 -26 -128 -8 -48 -19 -95 -25 -104 -9 -12 -10 -4 -4 38 5 30 12 99 15 154
4 55 11 103 16 106 10 6 28 96 48 234 16 107 22 119 33 61 8 -38 5 -69 -11
-145z"/>
<path d="M28045 10574 c-16 -2 -73 -9 -125 -15 -639 -71 -1333 -395 -1925
-899 -143 -121 -443 -423 -568 -571 -314 -372 -559 -737 -750 -1119 -178 -354
-259 -601 -261 -790 -1 -82 3 -102 24 -144 24 -48 81 -97 126 -110 20 -6 22
-2 29 59 45 426 477 1214 1004 1834 738 870 1654 1399 2575 1490 154 15 446
13 608 -4 424 -45 792 -181 997 -369 l44 -41 -18 35 c-137 268 -461 483 -874
579 -199 47 -343 62 -606 66 -137 2 -263 1 -280 -1z"/>
<path d="M6540 10394 c-36 -20 -95 -51 -132 -70 l-68 -34 21 -21 21 -21 98 60
c54 33 101 58 103 55 12 -12 -35 -240 -75 -363 -17 -52 -50 -133 -73 -180 -41
-81 -159 -270 -169 -270 -3 0 7 30 21 68 40 104 72 237 84 354 11 108 5 258
-11 258 -5 0 -11 -30 -15 -67 -36 -398 -95 -560 -303 -843 -63 -85 -63 -85
-36 -88 17 -2 35 5 51 20 14 13 32 22 42 20 24 -4 44 21 174 215 116 172 237
399 276 518 26 80 58 234 67 318 4 37 11 70 15 73 16 9 9 34 -8 33 -10 0 -47
-16 -83 -35z"/>
<path d="M19701 10348 c-5 -29 -13 -78 -16 -108 l-6 -55 21 24 c17 19 20 37
20 107 0 46 -2 84 -4 84 -3 0 -9 -24 -15 -52z"/>
<path d="M28253 10133 c-18 -3 -5 -13 60 -45 109 -55 226 -170 282 -278 21
-41 55 -91 75 -111 84 -82 164 -244 202 -413 29 -126 32 -384 5 -434 -42 -77
-120 -133 -202 -147 -107 -18 -268 -141 -480 -365 -156 -165 -205 -227 -206
-266 -1 -16 -5 -40 -9 -54 -7 -22 -8 -20 -9 15 l-2 40 -41 -45 c-66 -74 -239
-310 -460 -629 -136 -196 -157 -231 -143 -231 43 0 329 73 505 129 80 26 85
29 92 62 5 19 12 147 16 284 6 178 13 259 22 280 l14 30 4 -45 c2 -25 -1 -82
-8 -127 -6 -45 -8 -92 -4 -105 8 -25 6 -243 -3 -295 -3 -22 -1 -33 7 -33 6 0
55 18 109 41 l98 40 7 370 c4 203 10 379 15 391 6 17 11 2 23 -63 13 -71 14
-85 2 -92 -17 -10 -18 -27 -1 -27 9 0 12 -61 12 -274 l0 -274 25 10 c42 16
211 109 270 148 30 21 69 45 85 54 17 9 48 30 70 47 22 16 58 41 79 56 114 75
337 286 458 434 234 286 420 665 494 1010 13 60 18 128 19 239 0 133 -3 166
-23 235 -26 90 -31 95 -159 181 -212 142 -462 214 -868 253 -106 11 -386 13
-432 4z"/>
<path d="M25540 10062 c-14 -10 -79 -56 -145 -102 -536 -373 -1026 -889 -1375
-1449 -99 -160 -227 -493 -270 -706 -15 -77 -31 -149 -34 -160 -16 -49 68 139
99 222 57 150 215 458 310 603 49 74 101 160 117 190 28 56 108 173 169 251
19 24 47 62 62 84 15 22 51 68 80 101 28 34 89 106 133 160 86 104 434 452
519 520 27 21 82 67 121 100 39 34 110 92 158 129 75 59 94 76 84 75 -2 0 -14
-9 -28 -18z"/>
<path d="M30856 10043 c34 -79 75 -211 97 -308 19 -88 21 -129 21 -345 0 -225
-2 -256 -28 -385 -56 -288 -132 -519 -250 -760 -398 -811 -1175 -1352 -2311
-1609 l-150 -34 70 -6 c216 -21 358 -41 511 -71 l172 -34 113 38 c506 171 921
417 1253 740 398 390 644 853 760 1432 100 500 32 938 -201 1287 -63 93 -82
112 -57 55z"/>
<path d="M27340 9911 c-371 -154 -733 -379 -1060 -661 -127 -109 -438 -423
-531 -535 -265 -321 -440 -567 -616 -870 l-31 -54 4 -238 c2 -131 3 -328 4
-439 l0 -201 25 -11 c14 -7 30 -12 34 -12 5 0 23 28 41 63 18 34 41 73 51 87
9 14 54 91 99 170 345 607 903 1433 1304 1930 253 315 508 582 696 730 58 45
107 84 109 86 12 11 -26 -2 -129 -45z"/>
<path d="M19813 9861 l-62 -56 -1 -250 c0 -168 4 -274 13 -324 l13 -74 41 64
41 64 10 315 c5 173 9 316 8 316 0 1 -29 -23 -63 -55z"/>
<path d="M19650 9765 c-30 -13 -76 -27 -102 -30 -51 -7 -58 -19 -36 -54 8 -14
9 -26 2 -43 -6 -13 -8 -88 -6 -181 4 -157 4 -159 26 -151 11 5 53 8 93 8 71 1
71 1 78 31 5 25 23 341 25 423 0 27 -9 26 -80 -3z"/>
<path d="M19349 9584 c0 -104 -5 -232 -10 -284 -6 -52 -12 -133 -15 -180 l-5
-85 41 69 c22 38 53 83 69 101 l29 33 7 204 c4 111 5 223 3 248 -3 43 -4 45
-37 48 -27 3 -33 0 -28 -12 3 -8 2 -18 -3 -21 -6 -4 -10 -96 -10 -222 0 -119
-2 -214 -4 -212 -2 2 -6 111 -7 242 -3 175 -7 241 -16 249 -10 8 -13 -29 -14
-178z"/>
<path d="M28511 9535 c11 -44 22 -136 26 -205 5 -117 4 -127 -16 -151 -14 -19
-34 -29 -64 -33 -58 -9 -164 -61 -257 -126 -95 -67 -377 -348 -507 -505 -218
-265 -503 -662 -760 -1060 -1016 -1571 -1656 -2990 -1778 -3938 -17 -137 -20
-391 -4 -504 13 -97 58 -235 98 -301 17 -27 31 -56 31 -64 0 -56 -198 -128
-352 -128 -136 0 -210 21 -318 92 l-35 23 29 -50 c102 -176 230 -283 374 -314
127 -27 306 -3 414 56 73 40 76 48 34 117 -311 516 19 1789 883 3399 502 937
1183 1975 1645 2507 265 305 525 510 678 535 23 4 51 14 60 22 24 22 31 94 18
214 -20 196 -74 339 -165 437 l-53 57 19 -80z"/>
<path d="M11285 9076 c430 -206 808 -531 1021 -876 131 -213 195 -430 198
-662 0 -71 3 -128 6 -128 3 0 43 21 88 48 236 136 576 496 695 735 90 181 120
306 120 507 0 114 -4 163 -21 230 -36 147 -41 149 -41 10 -3 -378 -120 -616
-346 -702 -49 -19 -78 -23 -160 -22 -175 2 -309 65 -489 232 -345 317 -490
414 -842 560 -128 54 -316 123 -330 121 -5 0 41 -24 101 -53z"/>
<path d="M20044 9024 c-37 -44 -43 -57 -49 -119 l-7 -70 46 65 c52 72 59 91
54 141 l-3 33 -41 -50z"/>
<path d="M20500 9024 c-82 -55 -145 -143 -180 -252 -32 -103 -35 -131 -14
-139 11 -3 22 -11 25 -16 9 -13 99 98 148 180 60 102 89 229 56 240 -6 2 -22
-4 -35 -13z"/>
<path d="M19247 8961 c-61 -119 -209 -269 -317 -322 -57 -28 -59 -43 -5 -46
30 -1 38 3 43 19 3 15 7 16 13 7 14 -23 88 40 170 145 83 105 115 163 122 214
2 17 3 32 2 32 -1 0 -14 -22 -28 -49z"/>
<path d="M19507 8916 c-9 -20 -17 -49 -17 -64 l0 -27 25 26 c22 22 24 30 18
63 l-8 38 -18 -36z"/>
<path d="M19911 8873 l-51 -58 2 -77 c2 -76 2 -77 21 -60 51 45 75 96 82 175
4 42 5 77 2 77 -3 0 -28 -26 -56 -57z"/>
<path d="M22056 8815 c-23 -35 -134 -125 -205 -166 -33 -19 -61 -40 -61 -46 0
-21 69 -15 118 9 61 31 147 127 160 181 13 50 10 56 -12 22z"/>
<path d="M22407 8780 c-49 -42 -79 -108 -75 -162 l3 -43 42 63 c40 60 81 158
70 168 -3 3 -21 -9 -40 -26z"/>
<path d="M23101 8769 c-51 -49 -71 -92 -71 -150 l0 -42 24 22 c27 25 80 130
91 179 3 17 5 32 3 32 -2 0 -23 -19 -47 -41z"/>
<path d="M19408 8758 c-8 -13 -25 -41 -38 -63 l-24 -40 42 45 c23 25 41 53 42
63 0 23 -5 22 -22 -5z"/>
<path d="M19573 8487 c-12 -18 -36 -62 -54 -99 -30 -62 -32 -69 -17 -80 14
-11 16 -26 10 -108 -4 -52 -4 -135 0 -185 4 -49 9 -106 10 -125 2 -22 -1 -34
-9 -33 -20 4 -24 -27 -4 -35 15 -6 17 -11 9 -32 -14 -33 -18 -79 -12 -112 5
-23 12 -27 66 -37 34 -6 64 -8 67 -5 3 3 5 185 4 405 -2 399 -2 400 -25 438
l-24 39 -21 -31z"/>
<path d="M19671 8268 c-1 -57 4 -182 11 -278 6 -96 12 -219 12 -274 l1 -98 59
-18 59 -19 -8 318 c-5 228 -4 321 4 325 6 4 11 32 11 62 l0 54 -35 0 c-20 0
-52 7 -72 15 -19 8 -37 15 -38 15 -2 0 -3 -46 -4 -102z"/>
<path d="M19873 8362 c-6 -4 -16 -51 -22 -104 -16 -143 -11 -168 9 -48 10 58
21 117 25 133 8 29 7 31 -12 19z"/>
<path d="M19316 8247 c3 -62 9 -176 15 -254 12 -185 12 -266 -1 -258 -6 4 -10
-10 -10 -34 l0 -41 44 0 c24 0 51 -2 59 -6 19 -7 27 166 19 429 l-5 188 -63
44 -63 44 5 -112z"/>
<path d="M19853 7897 c-1 -89 -4 -198 -8 -243 l-7 -81 46 -27 c24 -14 47 -26
50 -26 3 0 6 60 6 134 0 129 1 134 20 129 19 -5 19 -11 13 -139 -6 -132 -6
-135 18 -160 13 -14 36 -35 52 -46 l27 -19 0 240 0 240 -55 12 c-64 14 -91 35
-129 102 -15 26 -28 47 -29 47 -1 0 -3 -73 -4 -163z"/>
<path d="M24983 7565 c-57 -121 -153 -355 -153 -374 0 -4 26 -11 58 -14 64 -5
102 -21 143 -59 l27 -25 6 59 c7 57 0 283 -13 458 l-6 84 -62 -129z"/>
<path d="M17209 7461 c-92 -30 -151 -133 -178 -311 -16 -103 -76 -278 -154
-445 -35 -77 -206 -422 -379 -765 -327 -650 -432 -872 -553 -1175 -216 -535
-294 -929 -240 -1203 21 -104 82 -226 146 -293 30 -31 68 -87 91 -133 53 -108
135 -189 248 -244 131 -65 220 -85 382 -86 130 -1 137 0 161 22 30 28 49 95
40 145 -16 103 61 361 193 640 546 1160 1636 2813 2101 3187 43 35 79 57 81
51 5 -16 -43 -157 -95 -280 -24 -57 -171 -356 -327 -665 -281 -558 -363 -729
-481 -1006 -234 -546 -339 -982 -305 -1264 20 -171 61 -266 160 -371 31 -33
65 -80 74 -104 25 -66 82 -146 135 -192 56 -49 203 -121 291 -143 36 -9 103
-19 150 -23 82 -5 87 -5 117 21 43 36 52 69 58 213 13 309 125 652 372 1148
103 205 192 362 433 765 413 690 756 1210 1020 1547 101 129 330 364 337 346
6 -16 -27 -117 -82 -254 -24 -59 -169 -358 -323 -665 -415 -828 -543 -1113
-665 -1489 -97 -299 -130 -471 -131 -680 0 -234 41 -358 159 -483 34 -37 66
-78 70 -92 16 -53 71 -136 128 -192 207 -204 672 -255 1064 -117 822 290 1622
1351 2333 3094 95 234 104 277 67 321 -22 26 -32 29 -79 28 -55 0 -105 -20
-146 -58 l-24 -21 23 55 c75 186 80 221 37 268 -45 47 -180 18 -233 -52 -13
-17 -52 -101 -86 -186 -491 -1229 -1357 -2422 -1984 -2738 -68 -34 -178 -72
-208 -72 -17 0 -19 5 -13 40 9 55 60 213 108 335 60 151 146 316 360 690 468
817 639 1202 723 1620 36 183 48 292 42 381 -12 167 -62 293 -160 400 -34 37
-74 95 -94 136 -44 93 -150 199 -248 250 -202 104 -477 136 -685 78 -212 -59
-452 -220 -702 -472 l-106 -108 -32 57 c-18 32 -56 80 -85 108 -29 28 -58 68
-64 88 -19 57 -84 149 -137 195 -62 54 -167 106 -269 134 -68 18 -108 22 -270
22 -170 1 -198 -1 -270 -22 -314 -91 -659 -370 -1027 -829 l-65 -82 -13 76
c-23 144 -84 278 -174 378 -29 33 -67 87 -84 121 -105 208 -393 400 -533 355z
m138 -289 c-16 -15 -17 -14 -17 15 0 17 3 40 7 50 6 15 9 12 17 -15 7 -26 6
-36 -7 -50z m1779 -26 c23 -17 29 -11 -79 -71 -48 -27 -136 -85 -195 -129
-101 -76 -346 -310 -462 -441 -74 -83 -53 -54 83 116 218 275 399 458 507 515
51 26 117 31 146 10z m1943 -2 c23 -17 23 -17 -55 -58 -99 -51 -212 -130 -306
-211 -40 -35 -95 -83 -123 -107 -46 -39 -43 -34 34 60 114 140 241 266 304
302 59 34 110 38 146 14z m-3937 -540 c-48 -122 -173 -386 -180 -380 -2 3 12
42 33 88 43 96 60 134 105 238 77 176 105 213 42 54z"/>
<path d="M12762 7271 c-46 -32 -135 -82 -198 -112 l-114 -54 0 -76 c0 -42 -3
-98 -6 -125 l-5 -49 52 55 c71 76 367 422 357 419 -2 -1 -40 -27 -86 -58z"/>
<path d="M24980 6688 c-92 -47 -159 -57 -228 -35 l-48 16 -94 -40 c-316 -136
-709 -122 -947 35 -29 19 -57 37 -63 41 -18 11 35 -86 79 -145 102 -136 278
-235 481 -270 90 -16 279 -14 380 4 277 49 521 201 561 348 8 32 7 44 -6 64
-8 13 -21 23 -28 22 -6 0 -46 -19 -87 -40z"/>
<path d="M27101 6166 c-17 -41 -31 -84 -31 -94 0 -35 53 -69 117 -76 392 -41
617 -77 859 -136 528 -128 918 -318 1188 -579 l68 -66 -37 60 c-119 189 -313
373 -535 507 -355 214 -853 366 -1453 443 -65 8 -124 15 -132 15 -7 0 -27 -33
-44 -74z"/>
<path d="M26654 6092 c-542 -966 -898 -1788 -1068 -2467 -24 -97 -56 -264 -56
-295 0 -8 25 28 56 80 84 140 205 281 330 386 203 169 467 288 769 349 115 24
156 27 350 28 300 2 503 -24 803 -103 46 -12 86 -19 89 -16 4 3 1 63 -5 133
-22 240 -33 628 -30 1071 3 381 1 444 -12 452 -8 5 -46 14 -85 20 -38 6 -110
17 -160 25 -97 15 -297 40 -410 50 -149 14 -210 38 -272 109 -41 46 -63 101
-63 153 0 25 -6 33 -41 48 -22 10 -58 38 -79 62 -20 24 -39 43 -41 43 -2 0
-36 -57 -75 -128z"/>
<path d="M24791 6171 c-8 -5 -45 -17 -82 -27 l-67 -17 -6 -41 c-4 -23 -9 -113
-11 -201 -6 -177 -5 -178 49 -42 19 45 59 136 90 203 31 66 56 124 56 127 0
10 -12 8 -29 -2z"/>
<path d="M23903 6157 c-8 -12 -13 -163 -32 -867 -6 -228 -16 -577 -22 -775 -6
-198 -13 -842 -16 -1432 l-6 -1071 24 -39 24 -38 7 290 c4 160 7 605 7 990 -1
555 2 753 16 955 9 145 20 492 25 805 4 303 13 607 20 676 7 69 9 150 5 180
-3 30 -9 115 -11 191 -4 105 -8 138 -19 142 -8 3 -18 0 -22 -7z"/>
<path d="M23999 6079 c-2 -187 -6 -261 -17 -313 -6 -32 -14 -153 -16 -270 -6
-236 7 -189 24 89 l9 150 -5 -200 c-2 -110 -9 -238 -14 -285 -5 -47 -15 -384
-20 -750 -6 -366 -15 -825 -20 -1020 -5 -195 -12 -636 -15 -980 l-6 -625 25
-30 26 -30 1 235 c1 129 3 271 5 315 2 44 6 289 9 545 5 419 26 1295 40 1700
15 426 27 761 40 1114 8 215 13 391 11 393 -2 2 -20 7 -40 10 l-36 6 -1 -54z"/>
<path d="M24443 6098 l-83 -10 0 -97 c0 -53 -7 -163 -15 -246 -27 -290 -44
-522 -50 -705 -3 -102 -8 -214 -10 -250 l-5 -65 25 80 c14 44 68 212 121 374
95 290 96 295 100 410 3 64 9 154 14 201 5 47 12 130 15 185 4 55 9 108 11
118 6 19 4 20 -123 5z"/>
<path d="M24156 5874 c-4 -126 -11 -323 -16 -439 -6 -115 -14 -381 -20 -590
-5 -209 -15 -519 -20 -690 -13 -381 -27 -996 -40 -1804 l-10 -615 37 -38 c20
-21 41 -38 45 -38 4 0 9 150 9 333 1 182 4 490 8 682 5 308 4 363 -11 455 -50
293 -42 612 27 1050 15 94 31 263 40 430 8 151 20 319 25 372 23 221 68 1093
58 1104 -4 3 -33 8 -66 11 l-60 6 -6 -229z"/>
<path d="M16210 5887 c-182 -178 -370 -303 -612 -410 -68 -30 -134 -58 -148
-62 -14 -4 -40 -14 -58 -23 -19 -8 -88 -29 -154 -46 l-120 -31 -35 -85 c-56
-138 -219 -578 -246 -665 -17 -54 -29 -126 -36 -220 -7 -77 -18 -192 -26 -255
-8 -63 -19 -182 -25 -265 -6 -82 -15 -189 -20 -236 -6 -47 -10 -117 -11 -155
-1 -38 -5 -80 -9 -94 -12 -37 -12 56 0 155 5 44 12 132 15 195 3 63 10 156 15
205 5 50 12 124 14 165 2 41 9 107 14 145 6 39 13 99 15 135 l4 65 -24 -80
c-13 -44 -34 -116 -48 -160 -59 -192 -114 -446 -145 -665 -31 -218 -25 -534
13 -649 11 -32 20 -39 87 -67 41 -18 94 -35 117 -39 40 -6 42 -5 46 22 4 27 4
27 6 -4 l1 -33 73 0 c94 0 169 20 285 76 120 58 172 62 258 19 48 -25 63 -38
82 -77 13 -26 26 -73 29 -107 5 -53 9 -61 26 -61 11 0 40 -11 64 -25 l43 -26
0 28 c1 15 12 -12 25 -62 16 -60 25 -118 25 -175 0 -47 5 -116 10 -155 8 -65
7 -85 -5 -74 -2 3 -7 42 -11 87 l-7 83 -47 -90 c-67 -127 -137 -224 -243 -339
-107 -116 -136 -141 -237 -209 -211 -142 -421 -208 -692 -219 -116 -4 -167 -1
-268 15 -114 18 -184 32 -234 47 -16 5 -18 2 -12 -22 4 -16 16 -42 28 -58 l21
-29 -23 -19 -23 -19 22 -23 c33 -35 21 -68 -22 -64 l-32 3 -5 115 c-3 63 -8
120 -12 125 -4 6 -42 26 -85 45 -43 18 -104 51 -135 72 -32 21 -58 37 -58 35
0 -3 7 -24 15 -47 20 -56 19 -72 -2 -68 -10 2 -17 11 -17 21 1 9 -2 14 -7 12
-4 -3 -11 21 -15 54 -6 56 -9 62 -58 104 -68 58 -154 164 -219 269 -28 47 -81
122 -115 168 -69 92 -166 280 -206 401 -68 210 -104 450 -113 749 -11 427 49
913 177 1432 39 159 118 437 147 516 8 24 13 45 11 48 -3 2 -43 11 -90 19 -47
8 -92 17 -99 19 -9 3 -48 -38 -104 -110 -166 -213 -579 -708 -864 -1034 -513
-588 -1114 -1200 -1591 -1620 -47 -41 -89 -80 -95 -86 -5 -6 -39 -35 -75 -64
-36 -30 -81 -70 -101 -88 l-37 -34 -6 -172 c-3 -94 -9 -317 -12 -495 l-6 -325
28 19 c91 58 500 380 630 495 28 25 98 86 154 135 291 253 652 600 993 954 92
95 167 168 167 162 0 -95 52 -407 96 -579 81 -316 218 -609 389 -832 23 -30
61 -85 83 -122 67 -109 207 -282 300 -369 308 -288 674 -454 1132 -514 25 -3
62 -8 82 -11 81 -12 404 -6 518 10 529 75 975 326 1324 745 120 144 249 337
284 424 l15 39 69 -7 c60 -6 67 -5 62 9 -4 11 16 38 62 86 54 56 63 70 46 70
-11 0 -24 4 -27 10 -7 11 -144 9 -151 -2 -3 -4 -15 -13 -27 -19 -17 -9 -15 -4
9 22 32 35 55 74 69 119 8 24 7 24 -18 7 -47 -31 -59 -23 -55 35 3 52 2 53
-35 73 -36 19 -38 22 -33 56 4 23 1 42 -9 55 -19 25 -20 152 -2 221 14 51 13
52 -11 58 -32 8 -47 -6 -66 -65 -20 -62 -21 -143 -2 -160 17 -13 11 -40 -9
-40 -16 0 -25 45 -25 119 0 40 7 72 24 107 13 27 23 50 22 50 0 1 -35 14 -76
28 -41 15 -105 45 -142 67 -36 21 -69 39 -72 39 -2 0 -7 -8 -9 -17 -3 -13 -5
-10 -6 7 -1 23 -75 110 -94 110 -5 0 -8 -58 -5 -135 2 -86 0 -131 -6 -125 -5
5 -9 70 -9 146 l1 136 -39 58 c-21 32 -48 78 -59 103 -11 26 -30 53 -41 61
-61 43 -144 186 -186 323 -26 84 -27 98 -27 298 0 191 3 222 28 345 86 416
259 855 634 1608 78 155 140 282 139 282 -1 0 -49 -47 -107 -103z m-1413
-2504 c-3 -10 -5 -2 -5 17 0 19 2 27 5 18 2 -10 2 -26 0 -35z m-10 -135 c-3
-7 -5 -2 -5 12 0 14 2 19 5 13 2 -7 2 -19 0 -25z m-85 -20 c-7 -7 -10 -5 -7 8
5 29 6 30 12 16 3 -8 1 -18 -5 -24z m85 -250 c-1 -46 -3 -11 -3 77 0 88 2 125
3 83 2 -42 2 -114 0 -160z m-77 197 c0 -8 -4 -15 -10 -15 -5 0 -7 7 -4 15 4 8
8 15 10 15 2 0 4 -7 4 -15z m982 -345 l-9 -145 -1 115 c-1 63 1 140 5 170 12
87 14 18 5 -140z m301 -205 c4 -70 3 -102 -3 -88 -19 47 -25 224 -6 202 2 -2
6 -53 9 -114z m124 63 c-3 -8 -6 -5 -6 6 -1 11 2 17 5 13 3 -3 4 -12 1 -19z
m-10 -60 c-3 -7 -5 -2 -5 12 0 14 2 19 5 13 2 -7 2 -19 0 -25z m-151 -403 c39
-186 45 -223 49 -280 3 -55 3 -56 -4 -15 -5 25 -16 68 -25 95 -15 44 -21 84
-41 255 -7 61 1 41 21 -55z m-2249 -747 c2 -17 0 -19 -7 -8 -5 8 -6 18 -4 22
8 12 10 10 11 -14z m316 -265 c-7 -2 -19 -2 -25 0 -7 3 -2 5 12 5 14 0 19 -2
13 -5z"/>
<path d="M23812 5908 c-18 -43 -34 -90 -37 -105 -2 -16 -7 -167 -9 -338 -3
-170 -10 -425 -16 -565 -6 -140 -12 -419 -15 -620 -2 -201 -7 -464 -11 -585
-3 -121 -3 -527 1 -902 7 -644 8 -683 25 -683 10 0 21 -8 25 -18 21 -51 27 53
24 413 -2 209 1 488 5 621 6 168 5 243 -2 248 -13 8 -8 920 8 1356 6 162 13
347 15 410 2 63 11 252 20 419 12 202 15 324 9 365 l-9 61 -33 -77z"/>
<path d="M18349 5628 c-134 -188 -138 -196 -132 -262 l6 -59 54 114 c85 175
142 299 140 299 -2 0 -32 -42 -68 -92z"/>
<path d="M23702 5645 l-33 -80 -5 -240 c-2 -132 -6 -519 -8 -860 -2 -341 -7
-631 -10 -645 -6 -25 -11 -903 -8 -1422 l2 -278 31 0 32 0 -7 70 c-10 109 -7
1348 3 1515 6 83 12 404 16 715 3 311 10 711 16 890 6 179 10 345 8 370 l-4
45 -33 -80z"/>
<path d="M27934 5677 c4 -12 9 -231 11 -487 3 -256 8 -519 11 -585 3 -66 8
-156 10 -200 1 -44 8 -114 14 -156 6 -42 8 -83 4 -93 -3 -9 0 -23 7 -32 7 -9
12 -30 11 -48 -4 -44 13 -59 96 -90 40 -14 74 -26 75 -26 1 0 2 75 2 167 0
134 3 167 14 171 10 3 12 -1 9 -16 -3 -12 -2 -74 3 -138 7 -100 12 -119 29
-131 12 -8 20 -25 20 -42 0 -36 19 -52 110 -91 41 -17 95 -42 119 -56 24 -13
48 -24 54 -24 6 0 8 30 5 84 -5 79 2 119 18 103 5 -4 9 -21 10 -37 1 -15 5
-34 9 -41 5 -7 1 -17 -9 -24 -14 -11 -15 -19 -6 -61 8 -39 17 -53 41 -66 17
-10 35 -18 40 -18 11 0 6 580 -7 928 -5 128 -4 192 3 192 6 0 13 -19 17 -42 6
-43 25 -742 26 -979 l0 -126 63 -28 c97 -44 187 -85 242 -110 28 -13 53 -21
57 -17 24 24 150 382 188 532 47 188 55 253 55 445 0 227 -26 358 -102 522
-41 88 -258 263 -438 354 -22 11 -47 23 -55 28 -20 12 -106 51 -205 94 -125
54 -394 136 -534 162 -20 4 -22 1 -17 -18z m1037 -982 c-7 -88 -16 -200 -21
-250 -5 -49 -13 -138 -16 -197 -4 -60 -10 -108 -13 -108 -8 0 -5 87 10 250 5
63 16 198 24 300 18 222 16 210 22 185 3 -11 0 -92 -6 -180z m-769 -25 c5 -67
-3 -260 -11 -260 -16 0 -21 49 -24 220 -3 225 19 251 35 40z m715 -577 c-3
-10 -5 -4 -5 12 0 17 2 24 5 18 2 -7 2 -21 0 -30z"/>
<path d="M23586 5382 l-59 -127 -4 -715 c-1 -393 -4 -1030 -6 -1415 -2 -385
-1 -765 2 -845 l6 -145 40 -3 40 -3 0 83 c0 46 -4 88 -8 95 -4 6 -2 23 4 37 9
19 9 36 0 70 -7 27 -9 73 -5 115 4 41 2 81 -4 100 -7 18 -7 29 -2 26 6 -4 10
-2 10 4 0 5 -4 11 -9 13 -10 4 5 1354 15 1370 4 6 6 210 5 453 -1 325 2 482
13 596 15 160 30 419 24 419 -1 0 -30 -58 -62 -128z"/>
<path d="M30484 5423 c33 -67 84 -213 107 -312 83 -346 57 -806 -71 -1289 -65
-242 -191 -535 -325 -753 l-63 -104 131 -42 c73 -24 138 -43 144 -43 28 0 189
355 256 565 86 269 157 697 157 946 0 273 -62 557 -171 786 -35 74 -173 293
-185 293 -2 0 6 -21 20 -47z"/>
<path d="M20185 5349 c-9 -17 -15 -33 -13 -35 3 -2 12 12 21 31 21 43 13 47
-8 4z"/>
<path d="M18086 5231 l-87 -131 3 -145 3 -145 82 197 82 198 -11 53 c-9 46 -8
55 7 72 10 11 16 22 13 25 -3 3 -44 -53 -92 -124z"/>
<path d="M20112 5232 c-23 -42 -30 -67 -25 -77 7 -12 16 -2 37 43 40 84 30
113 -12 34z"/>
<path d="M23485 5166 c-52 -124 -256 -514 -385 -736 -79 -136 -305 -490 -354
-556 -314 -420 -589 -707 -865 -902 -53 -37 -58 -48 -76 -160 -14 -89 -17
-149 -13 -290 5 -170 -4 -260 -31 -334 -12 -34 -1 394 15 544 20 199 28 185
-73 126 -49 -29 -90 -53 -91 -54 -2 -1 -8 -44 -12 -96 -8 -85 -27 -249 -50
-418 -10 -83 -42 -231 -47 -226 -3 2 0 37 6 78 12 83 18 136 26 228 3 36 12
119 20 185 8 66 16 146 19 177 l4 57 -76 -36 c-42 -19 -138 -53 -212 -75 -434
-128 -924 -58 -1155 163 -23 22 -43 39 -47 39 -3 0 -8 -15 -11 -32 -12 -84
-48 -272 -52 -276 -14 -14 20 254 40 317 2 9 -15 44 -40 79 l-44 64 -11 -42
c-6 -24 -18 -75 -25 -114 -8 -39 -21 -91 -30 -116 -10 -25 -21 -72 -25 -105
-26 -186 -40 -324 -46 -436 l-6 -126 103 -52 c249 -127 513 -191 844 -205 82
-4 331 8 380 18 11 2 40 7 65 10 79 12 275 58 284 67 5 5 15 35 22 66 l12 58
1 -57 1 -57 53 16 c133 39 333 133 524 247 113 67 310 206 400 282 28 24 55
44 59 44 4 0 21 -11 38 -24 70 -52 205 -140 259 -167 60 -31 59 -31 59 26 -1
22 2 17 10 -17 9 -44 13 -47 69 -73 82 -36 186 -71 299 -99 144 -36 167 -39
173 -22 3 7 4 236 2 507 -2 272 0 953 3 1514 4 561 6 1022 5 1024 -2 2 -10
-13 -18 -33z m-3508 -3033 c-3 -10 -5 -4 -5 12 0 17 2 24 5 18 2 -7 2 -21 0
-30z m133 -53 c0 -11 -4 -20 -9 -20 -5 0 -7 9 -4 20 3 11 7 20 9 20 2 0 4 -9
4 -20z m1447 -2 c-3 -8 -6 -5 -6 6 -1 11 2 17 5 13 3 -3 4 -12 1 -19z"/>
<path d="M20052 5138 c-41 -52 -67 -157 -43 -172 14 -9 53 83 59 137 5 49 2
56 -16 35z"/>
<path d="M17929 4985 c-25 -38 -54 -86 -64 -105 -9 -19 -39 -72 -66 -116 l-49
-82 1 -388 c1 -378 1 -386 15 -294 14 90 80 375 91 393 3 5 35 95 70 200 l65
192 -9 135 -8 135 -46 -70z"/>
<path d="M19957 4981 c-13 -22 -17 -51 -16 -118 l0 -88 21 45 c22 47 38 190
21 190 -5 0 -16 -13 -26 -29z"/>
<path d="M19870 4828 c-16 -34 -33 -64 -38 -67 -12 -8 -172 -275 -250 -416
-98 -177 -224 -442 -220 -462 2 -13 9 -8 25 23 11 22 32 53 46 68 l25 27 7
-29 c3 -16 1 -42 -6 -58 -6 -16 -15 -69 -19 -117 -6 -61 -13 -92 -24 -100 -8
-7 -17 -32 -19 -57 -2 -25 -4 3 -5 62 -1 59 -6 109 -11 112 -13 8 -31 -131
-31 -239 0 -57 -4 -95 -10 -95 -6 0 -10 29 -10 66 0 41 -4 63 -10 59 -6 -4
-10 -60 -11 -133 -1 -105 -3 -120 -11 -87 -5 22 -7 75 -3 118 5 73 4 79 -15
84 -24 6 -25 17 -5 73 23 66 16 82 -8 18 -19 -49 -21 -67 -15 -145 10 -135 9
-233 -2 -233 -5 0 -11 26 -11 58 -1 31 -7 -26 -14 -126 -16 -234 -13 -346 11
-411 15 -42 16 -59 7 -98 -6 -27 -10 -84 -8 -128 1 -44 -1 -112 -6 -152 -6
-53 -5 -85 7 -125 8 -29 17 -97 21 -150 4 -64 11 -102 19 -109 8 -7 14 -31 14
-55 l0 -44 43 21 c23 12 56 33 74 46 l32 25 -3 186 c-3 185 2 248 48 627 19
154 81 467 98 494 9 15 9 23 -1 35 -16 19 -6 36 20 36 12 0 19 7 19 19 0 11 5
21 11 23 23 8 68 188 69 273 1 214 53 473 159 790 56 165 61 187 61 268 0 54
-4 87 -10 87 -6 0 -24 -28 -40 -62z"/>
<path d="M17646 4512 l-39 -66 11 -295 c7 -163 13 -487 14 -721 3 -400 2 -425
-14 -422 -14 2 -18 -4 -18 -25 0 -15 -4 -33 -8 -40 -4 -6 -8 36 -10 93 -3 95
-2 104 15 104 15 0 18 7 17 38 -4 85 -16 179 -24 192 -5 9 -5 19 2 27 7 9 7
17 1 26 -6 7 -13 171 -18 402 -3 215 -10 421 -13 459 l-7 69 -53 -95 c-49 -89
-53 -103 -62 -194 -12 -123 -18 -144 -36 -137 -13 5 -13 8 -1 27 14 21 29 163
16 148 -4 -4 -42 -74 -84 -157 -43 -82 -81 -154 -85 -160 -4 -5 -49 -97 -99
-203 -147 -309 -193 -449 -196 -607 -2 -120 -14 -167 -59 -234 -19 -28 -36
-59 -38 -68 -2 -12 -17 -20 -43 -24 -22 -4 -53 -13 -70 -20 -17 -7 -80 -13
-143 -14 -105 -1 -114 -3 -140 -27 -15 -14 -39 -33 -54 -43 -34 -21 -35 -41
-8 -121 11 -32 20 -74 20 -93 0 -32 1 -33 23 -18 22 14 23 13 22 -11 0 -21 14
-37 70 -79 39 -29 80 -53 93 -53 22 0 85 40 126 81 11 11 40 34 63 50 23 16
52 47 63 70 19 35 20 51 14 120 -5 57 -12 87 -27 105 -27 34 -9 52 25 25 46
-37 52 -68 35 -186 -15 -102 -18 -109 -57 -151 -22 -24 -43 -57 -46 -74 -8
-40 -33 -61 -26 -23 4 27 4 27 -14 11 -16 -16 -17 -22 -5 -53 14 -41 9 -55
-24 -55 -26 0 -35 -17 -34 -63 l1 -32 9 33 c14 46 31 39 58 -25 14 -31 35 -67
48 -81 21 -23 31 -52 18 -52 -3 0 -18 14 -33 31 -65 75 -63 73 -80 55 -14 -14
-14 -17 2 -35 20 -22 13 -43 -12 -39 -11 2 -18 -5 -20 -19 -4 -27 -11 -27 108
-8 281 42 520 185 685 410 16 22 38 50 49 63 l20 22 29 -27 29 -28 -6 190
c-12 378 -10 513 8 494 2 -2 6 -161 9 -353 l6 -350 29 -28 29 -29 6 583 c7
554 -6 1547 -21 1704 l-7 71 -39 -65z m21 -429 c-2 -27 -3 -5 -3 47 0 52 1 74
3 48 2 -27 2 -69 0 -95z m-170 -125 c-2 -13 -4 -3 -4 22 0 25 2 35 4 23 2 -13
2 -33 0 -45z m-10 -118 c-6 -48 -75 -225 -85 -216 -5 6 79 266 86 266 3 0 2
-22 -1 -50z m-120 -214 c4 -7 15 -16 23 -19 9 -3 5 -6 -11 -6 -17 -1 -30 -9
-37 -23 -9 -21 -11 -18 -11 20 -1 43 18 58 36 28z m310 -273 c-2 -38 -3 -7 -3
67 0 74 1 105 3 68 2 -38 2 -98 0 -135z m-193 -43 c-19 -74 -39 -150 -45 -168
-14 -42 -14 -151 -1 -164 13 -13 26 25 17 53 -7 20 -6 20 18 5 l24 -17 8 63
c7 58 8 61 17 33 5 -16 11 -138 14 -270 l5 -240 -75 3 c-83 4 -97 16 -64 54
38 44 49 77 46 141 -3 60 -4 62 -30 62 -41 1 -56 20 -34 44 15 16 17 30 11 84
-4 41 -3 67 3 71 6 3 13 41 17 84 4 46 15 90 26 110 11 19 17 38 13 43 -3 6
-1 15 4 22 5 7 13 23 17 36 13 42 36 93 40 89 2 -2 -12 -64 -31 -138z m-186
-387 c-2 -115 1 -223 6 -240 5 -20 5 -33 -1 -33 -12 0 -43 163 -43 230 0 49
17 206 26 238 11 39 14 -10 12 -195z m299 -26 c0 -8 -6 -14 -14 -14 -9 0 -10
4 -2 14 6 7 12 13 14 13 1 0 2 -6 2 -13z m-152 -338 c11 -16 1 -19 -13 -3 -7
8 -8 14 -3 14 5 0 13 -5 16 -11z m88 -107 c-4 -16 -13 -22 -34 -22 -16 0 -29
5 -29 10 0 6 11 10 25 10 14 0 28 7 32 15 8 23 13 13 6 -13z"/>
<path d="M17744 3720 c0 -52 1 -74 3 -47 2 26 2 68 0 95 -2 26 -3 4 -3 -48z"/>
<path d="M27075 3720 c-99 -8 -235 -29 -235 -37 0 -2 33 -2 73 2 144 14 352
-27 672 -132 233 -76 451 -165 872 -354 680 -305 1083 -475 1618 -679 222 -84
661 -233 850 -286 379 -108 907 -227 1219 -274 676 -102 1405 -101 2016 1 160
26 635 137 627 145 -2 2 -80 -5 -173 -15 -93 -11 -227 -22 -299 -26 -165 -8
-486 -34 -496 -40 -16 -10 -682 -7 -864 4 -523 32 -1254 164 -1864 337 -521
147 -998 324 -2546 947 -544 218 -842 324 -1060 378 -169 41 -213 44 -410 29z"/>
<path d="M17751 3560 c0 -25 -2 -342 -4 -705 l-5 -660 77 -54 c145 -104 326
-184 547 -242 120 -31 304 -59 394 -59 l57 0 -7 38 c-3 20 0 64 7 97 7 33 12
79 13 103 0 24 5 42 11 42 13 0 8 -233 -5 -262 -6 -13 -4 -18 7 -18 11 0 18
22 28 85 7 47 16 85 20 85 5 0 12 -18 15 -40 4 -22 11 -40 17 -40 5 0 7 -12 4
-28 -10 -52 2 -57 90 -39 43 8 107 26 143 39 l65 23 -3 80 c-3 85 -27 264 -43
330 -20 79 -40 385 -42 653 -2 292 -12 309 -26 47 -7 -126 -14 -173 -31 -219
-26 -67 -86 -138 -141 -166 -50 -26 -149 -47 -179 -39 -14 4 -53 12 -87 16
l-63 9 -1 -50 c-1 -68 -4 -95 -13 -103 -4 -4 -5 29 -2 73 l5 81 -82 23 c-97
28 -227 92 -289 143 -25 20 -48 37 -51 37 -3 0 -8 -30 -10 -67 l-3 -68 -2 72
c-2 70 -4 74 -52 139 -28 36 -66 96 -85 133 -18 37 -40 73 -49 80 -38 32 -131
169 -159 234 -16 39 -38 110 -48 157 -15 73 -18 79 -18 40z m206 -557 c-3 -10
-5 -2 -5 17 0 19 2 27 5 18 2 -10 2 -26 0 -35z m970 -465 c-3 -8 -6 -5 -6 6
-1 11 2 17 5 13 3 -3 4 -12 1 -19z m-390 -170 c-2 -29 -3 -6 -3 52 0 58 1 81
3 53 2 -29 2 -77 0 -105z m180 45 c-3 -10 -5 -2 -5 17 0 19 2 27 5 18 2 -10 2
-26 0 -35z m-187 -205 c-6 -26 -8 -20 -8 32 0 52 2 58 8 33 4 -18 4 -48 0 -65z
m256 -217 c-15 -14 -16 -12 -16 17 0 18 6 54 13 80 l12 47 3 -64 c2 -48 -1
-68 -12 -80z"/>
<path d="M19690 3546 c-5 -15 -10 -38 -10 -52 0 -23 -12 -52 -36 -84 -6 -8
-14 -40 -17 -71 -3 -31 -16 -78 -30 -105 -24 -48 -32 -111 -42 -349 -2 -27 -8
-72 -14 -100 -6 -27 -14 -139 -17 -248 -4 -109 -11 -200 -16 -203 -4 -3 -8 65
-8 150 0 85 -4 157 -8 160 -5 3 -12 -79 -15 -182 -9 -257 -9 -322 3 -322 6 0
10 30 10 70 0 75 13 94 24 33 3 -21 9 -56 13 -77 l8 -39 47 51 c45 50 47 55
53 130 3 42 13 129 22 192 8 63 19 158 23 210 4 52 15 118 23 145 9 28 18 63
22 79 4 19 9 26 16 19 11 -11 -3 -154 -21 -223 -6 -19 -12 -123 -14 -230 -2
-110 -9 -214 -16 -238 -11 -38 -11 -45 6 -63 18 -20 98 -79 107 -79 2 0 7 54
10 120 9 157 38 345 91 588 24 109 46 212 50 229 5 29 -1 40 -45 90 -96 109
-140 191 -180 338 -11 44 -23 82 -25 84 -2 2 -8 -8 -14 -23z"/>
<path d="M19158 3354 c-13 -20 8 -444 22 -457 10 -10 11 23 5 163 -9 215 -18
309 -27 294z"/>
<path d="M26920 3323 c-66 -7 -205 -45 -267 -73 -223 -101 -355 -276 -383
-509 -20 -160 16 -297 105 -399 65 -75 71 -73 66 23 -11 278 134 508 395 626
341 155 737 83 1492 -270 96 -45 179 -78 185 -74 21 12 107 88 107 94 0 10
-548 275 -730 352 -430 183 -735 256 -970 230z"/>
<path d="M17599 3103 c-13 -16 -12 -17 4 -4 16 13 21 21 13 21 -2 0 -10 -8
-17 -17z"/>
<path d="M27111 2879 c-152 -19 -285 -83 -376 -181 -60 -65 -89 -130 -106
-240 -13 -85 -11 -87 91 -119 236 -73 612 -59 945 36 50 14 109 33 133 41 l42
16 0 148 c0 106 -4 150 -12 158 -7 5 -46 20 -87 32 -40 12 -80 24 -87 27 -11
4 -14 -13 -15 -83 l-1 -89 -19 75 c-10 41 -18 85 -19 96 0 19 -12 25 -77 42
-142 37 -305 53 -412 41z"/>
<path d="M24206 2503 c-4 -191 -8 -379 -11 -418 -2 -38 -6 -160 -9 -271 l-6
-201 52 -36 c28 -20 53 -36 54 -34 1 1 5 153 9 337 3 184 10 436 15 560 7 200
6 228 -8 250 -9 14 -33 56 -53 93 l-36 69 -7 -349z"/>
<path d="M27850 2662 c0 -32 5 -63 12 -70 6 -6 10 -38 9 -76 l-2 -66 48 23
c106 50 113 56 113 87 0 17 -6 48 -12 70 -12 37 -18 41 -81 65 -37 14 -72 25
-78 25 -5 0 -9 -26 -9 -58z"/>
<path d="M36395 2642 c-22 -9 -80 -39 -129 -66 -49 -27 -124 -65 -166 -85 -69
-32 -85 -46 -152 -126 -42 -49 -107 -123 -146 -162 -38 -40 -68 -73 -67 -73 1
0 19 7 40 16 38 16 55 14 33 -3 -7 -5 -37 -20 -67 -32 -30 -13 -91 -54 -135
-91 -492 -411 -1084 -642 -1851 -722 -179 -18 -691 -15 -905 6 -985 96 -1982
383 -3104 894 -193 88 -200 91 -221 74 -12 -9 -67 -53 -121 -97 -470 -379
-1103 -661 -1754 -779 -235 -43 -416 -59 -665 -59 -316 1 -499 24 -710 90
-155 49 -329 143 -424 228 -23 21 -41 33 -41 27 0 -24 110 -172 175 -237 200
-198 505 -321 877 -356 166 -15 612 -6 768 15 742 103 1439 393 1960 816 41
34 89 72 107 86 l32 25 198 -89 c823 -372 1515 -610 2203 -756 1136 -242 2067
-212 2834 90 285 113 594 293 806 472 213 179 440 439 572 657 103 169 139
256 106 254 -7 0 -31 -8 -53 -17z"/>
<path d="M28080 2606 c0 -32 14 -40 40 -24 26 17 25 22 -5 36 -34 16 -35 16
-35 -12z"/>
<path d="M18903 1885 c0 -22 2 -30 4 -17 2 12 2 30 0 40 -3 9 -5 -1 -4 -23z"/>
<path d="M16597 1872 c-19 -20 -22 -32 -9 -32 5 0 14 11 20 25 14 30 11 31
-11 7z"/>
</g>
</svg>
